<svg xmlns="http://www.w3.org/2000/svg" version="1.1" xmlns:xlink="http://www.w3.org/1999/xlink" width="512" height="512" x="0" y="0" viewBox="0 0 512 512" style="enable-background:new 0 0 512 512" xml:space="preserve" class=""><g>
<g xmlns="http://www.w3.org/2000/svg">
	<g>
		<path d="M477.615,102.35c-23.137-25.991-51.217-39.17-83.46-39.17c-28.978,0-53.544,10.319-73.021,30.669    c-19.353,20.22-29.166,45.335-29.166,74.649c0,27.702,9.912,52.387,29.461,73.371c17.244,18.512,38.967,30.287,64.683,35.086    c-4.497,34.095-34.638,64.956-89.766,91.846l-9.927,4.843l40.701,75.14l9.188-4.657C452.889,385.033,512,301.518,512,195.901    C512,159.463,500.432,127.989,477.615,102.35z M335.875,420.493l-20.392-37.642c61.323-32.133,92.392-70.76,92.392-114.924v-9.456    l-9.395-1.064c-25.305-2.864-45.441-12.667-61.558-29.97c-16.001-17.177-23.78-36.455-23.78-58.939    c0-24.008,7.619-43.636,23.289-60.01c15.543-16.241,34.426-24.136,57.725-24.136c26.305,0,48.431,10.492,67.642,32.074    c19.534,21.948,29.03,47.944,29.03,79.474c0,48.407-13.631,92.109-40.512,129.892    C424.666,361.842,386.195,393.669,335.875,420.493z" fill="#000000" data-original="#000000" class=""></path>
	</g>
</g>
<g xmlns="http://www.w3.org/2000/svg">
	<g>
		<path d="M190.638,102.303c-23.393-25.959-51.59-39.122-83.809-39.122c-29.006,0-53.461,10.338-72.682,30.726    c-19.056,20.212-28.719,45.308-28.719,74.592c0,27.701,9.912,52.386,29.459,73.371c17.208,18.472,38.67,30.236,63.908,35.057    c-4.443,34.121-34.333,64.997-89.019,91.892L0,373.625l39.688,75.194l9.279-4.682c117.11-59.091,176.49-142.61,176.49-248.236    C225.456,159.435,213.74,127.944,190.638,102.303z M48.659,420.458l-19.836-37.584c60.878-32.145,91.725-70.781,91.725-114.947    v-9.435l-9.374-1.082c-24.786-2.86-44.674-12.664-60.796-29.973C34.377,210.261,26.6,190.982,26.6,168.499    c0-24.039,7.508-43.688,22.951-60.067c15.275-16.202,34.012-24.079,57.278-24.079c26.331,0,48.602,10.507,68.079,32.123    c19.767,21.936,29.376,47.917,29.376,79.425c0,48.399-13.69,92.095-40.693,129.874C137.83,361.815,99.194,393.637,48.659,420.458z    " fill="#000000" data-original="#000000" class=""></path>
	</g>
</g>
<g xmlns="http://www.w3.org/2000/svg">
</g>
<g xmlns="http://www.w3.org/2000/svg">
</g>
<g xmlns="http://www.w3.org/2000/svg">
</g>
<g xmlns="http://www.w3.org/2000/svg">
</g>
<g xmlns="http://www.w3.org/2000/svg">
</g>
<g xmlns="http://www.w3.org/2000/svg">
</g>
<g xmlns="http://www.w3.org/2000/svg">
</g>
<g xmlns="http://www.w3.org/2000/svg">
</g>
<g xmlns="http://www.w3.org/2000/svg">
</g>
<g xmlns="http://www.w3.org/2000/svg">
</g>
<g xmlns="http://www.w3.org/2000/svg">
</g>
<g xmlns="http://www.w3.org/2000/svg">
</g>
<g xmlns="http://www.w3.org/2000/svg">
</g>
<g xmlns="http://www.w3.org/2000/svg">
</g>
<g xmlns="http://www.w3.org/2000/svg">
</g>
</g></svg>