<?xml version="1.0" encoding="iso-8859-1"?>
<!-- Generator: Adobe Illustrator 19.0.0, SVG Export Plug-In . SVG Version: 6.00 Build 0)  -->
<svg version="1.1" id="Layer_1" xmlns="http://www.w3.org/2000/svg" xmlns:xlink="http://www.w3.org/1999/xlink" x="0px" y="0px"
	 viewBox="0 0 352.421 352.421" style="enable-background:new 0 0 352.421 352.421;" xml:space="preserve">
<g>
	<circle style="fill:#F2D383;" cx="176.211" cy="111.861" r="73.867"/>
	<circle style="fill:#FF8189;" cx="112.929" cy="143.949" r="73.867"/>
	<circle style="fill:#FF8189;" cx="239.494" cy="143.949" r="73.867"/>
	<g>
		<g>
			<rect x="143.233" y="231.653" style="fill:#8CD5EF;" width="65.957" height="107.368"/>
			<rect x="143.233" y="231.653" style="fill:#00B3E3;" width="65.957" height="32.634"/>
		</g>
		<path style="fill:#8CD5EF;" d="M318.039,130.543c6.135,0,11.108,4.973,11.108,11.107v13.924c0,53.832-43.638,97.471-97.471,97.471
			h-110.93c-53.833,0-97.471-43.639-97.471-97.471V141.65c0-6.134,4.972-11.107,11.108-11.107H318.039z"/>
		<path style="fill:#8CD5EF;" d="M236.028,352.421c7.953,0,14.4-6.447,14.4-14.4s-6.447-14.4-14.4-14.4H116.395
			c-7.953,0-14.4,6.447-14.4,14.4s6.447,14.4,14.4,14.4H236.028z"/>
		<path style="fill:#00B3E3;" d="M190.176,213.952c0,7.713-6.252,13.965-13.965,13.965s-13.965-6.252-13.965-13.965v-47.881
			c0-7.713,6.252-13.965,13.965-13.965s13.965,6.252,13.965,13.965V213.952z"/>
		<path style="fill:#00B3E3;" d="M121.842,213.952c0,7.713-6.253,13.965-13.966,13.965c-7.712,0-13.965-6.252-13.965-13.965v-47.881
			c0-7.713,6.253-13.965,13.965-13.965c7.713,0,13.966,6.252,13.966,13.965V213.952z"/>
		<path style="fill:#00B3E3;" d="M230.58,213.952c0,7.713,6.252,13.965,13.965,13.965s13.966-6.252,13.966-13.965v-47.881
			c0-7.713-6.253-13.965-13.966-13.965s-13.965,6.252-13.965,13.965L230.58,213.952L230.58,213.952z"/>
	</g>
	<g>
		<circle style="fill:#E94F3D;" cx="176.211" cy="37.995" r="16.478"/>
		<path style="fill:#712D3D;" d="M176.211,27.632c-1.723,0-3.119-1.396-3.119-3.12c0-5.677,8.816-19.496,18.203-24.183
			c1.54-0.77,3.414-0.144,4.185,1.397c0.77,1.542,0.144,3.415-1.397,4.185c-7.947,3.969-14.752,15.93-14.752,18.601
			C179.33,26.235,177.934,27.632,176.211,27.632z"/>
	</g>
</g>
<g>
</g>
<g>
</g>
<g>
</g>
<g>
</g>
<g>
</g>
<g>
</g>
<g>
</g>
<g>
</g>
<g>
</g>
<g>
</g>
<g>
</g>
<g>
</g>
<g>
</g>
<g>
</g>
<g>
</g>
</svg>
