<?xml version="1.0" encoding="iso-8859-1"?>
<!-- Generator: Adobe Illustrator 19.0.0, SVG Export Plug-In . SVG Version: 6.00 Build 0)  -->
<svg version="1.1" id="Layer_1" xmlns="http://www.w3.org/2000/svg" xmlns:xlink="http://www.w3.org/1999/xlink" x="0px" y="0px"
	 viewBox="0 0 511.988 511.988" style="enable-background:new 0 0 511.988 511.988;" xml:space="preserve">
<path style="fill:#A0D468;" d="M141.183,77.02c-30.749-5.773-99.403,17.703-100.731,24.726
	c-1.312,7.031,54.139,53.819,84.889,59.593c30.765,5.773,59.232-8.414,63.607-31.703C193.323,106.356,171.933,82.794,141.183,77.02z
	"/>
<g>
	<path style="fill:#434A54;" d="M231.556,71.513c4.156-4.164,4.141-10.906-0.016-15.062c-4.171-4.164-10.921-4.164-15.077,0
		c-0.016,0.008-0.016,0.016-0.031,0.016l0,0c-0.531,0.539-13.281,13.406-25.578,31.538c-17.233,25.391-24.921,48.015-22.812,67.249
		l21.202-2.312c-3.125-28.664,29.438-68.452,42.296-81.404l0,0l0,0C231.556,71.529,231.556,71.521,231.556,71.513L231.556,71.513z"
		/>
	<path style="fill:#434A54;" d="M170.824,419.114c-4.156,4.172-4.156,10.922,0,15.077c4.172,4.172,10.922,4.172,15.093,0
		c4.156-4.155,4.156-10.905,0-15.077C181.746,414.942,174.996,414.942,170.824,419.114z"/>
</g>
<path style="fill:#DA4453;" d="M178.637,138.98C72.201,92.192,0,165.722,0,269.805c0,104.045,98.247,196.09,178.637,159.856
	c80.404,36.233,178.637-55.812,178.637-159.856C357.273,165.722,285.087,92.192,178.637,138.98z"/>
<g style="opacity:0.1;">
	<path d="M199.979,429.661c-3.531,1.594-7.094,2.921-10.672,4.03c12.344,3.797,24.969,4.797,37.484,3.391
		C217.745,436.035,208.745,433.613,199.979,429.661z"/>
	<path d="M21.343,269.805c0-77.99,40.53-138.833,105.639-144.738C49.514,118.371,0,183.612,0,269.805
		c0,92.686,77.967,175.855,151.824,167.277C85.029,429.583,21.343,353.584,21.343,269.805z"/>
</g>
<path style="fill:#ED5564;" d="M362.664,458.66c82.467,0,149.324-66.857,149.324-149.34H213.339
	C213.339,391.803,280.196,458.66,362.664,458.66z"/>
<path style="fill:#FFE7B0;" d="M362.664,437.316c70.686,0,127.996-57.295,127.996-127.996H234.666
	C234.666,380.021,291.977,437.316,362.664,437.316z"/>
<path style="fill:#EDCA8C;" d="M364.18,383.99c41.248,0,74.67-33.422,74.67-74.67H289.524
	C289.524,350.568,322.945,383.99,364.18,383.99z"/>
<path style="fill:#434A54;" d="M355.117,316.866c4.172,4.172,10.922,4.172,15.093,0c2.078-2.078,3.125-4.812,3.125-7.546h-21.343
	C351.992,312.054,353.039,314.788,355.117,316.866z"/>
<g>
</g>
<g>
</g>
<g>
</g>
<g>
</g>
<g>
</g>
<g>
</g>
<g>
</g>
<g>
</g>
<g>
</g>
<g>
</g>
<g>
</g>
<g>
</g>
<g>
</g>
<g>
</g>
<g>
</g>
</svg>
