<?xml version="1.0" encoding="iso-8859-1"?>
<!-- Generator: Adobe Illustrator 19.0.0, SVG Export Plug-In . SVG Version: 6.00 Build 0)  -->
<svg xmlns="http://www.w3.org/2000/svg" xmlns:xlink="http://www.w3.org/1999/xlink" version="1.1" id="Capa_1" x="0px" y="0px" viewBox="0 0 455.01 455.01" style="enable-background:new 0 0 455.01 455.01;" xml:space="preserve" width="512" height="512">
<g>
	<path style="fill:#FF3B3B;" d="M56.004,46.797c0.014,0.014,110.74,110.74,110.74,110.74l-35.355,35.355L20.649,82.153   L56.004,46.797z"/>
	<path style="fill:#FF6761;" d="M41.911,60.989l110.691,110.69l40.305-40.305L82.167,20.634L41.862,60.94   C41.876,60.954,41.897,60.975,41.911,60.989z"/>
	<path style="fill:#CB2E3E;" d="M8.366,57.722L0.015,0.001l71.093,90.184c-16.327,8.308-36.798,5.629-50.459-8.033   C13.768,75.273,9.674,66.667,8.366,57.722z"/>
	<path style="fill:#FF3B3B;" d="M41.911,60.989l29.196,29.196c3.988-2.022,7.729-4.702,11.059-8.033   c16.985-16.985,16.992-44.527,0-61.518c-6.88-6.88-15.486-10.974-24.431-12.282L0.015,0.001l25.371,40.701   c3.946,6.307,9.595,13.357,16.476,20.237C41.876,60.954,41.897,60.975,41.911,60.989z"/>
	<polygon style="fill:#FFE29E;" points="103.811,178.043 220.491,294.723 262.918,252.297 125.025,156.83  "/>
	
		<rect x="127.376" y="151.154" transform="matrix(-0.7071 -0.7071 0.7071 -0.7071 224.891 470.4601)" style="fill:#FFF1CF;" width="165.01" height="75"/>
	<polygon style="fill:#FFD764;" points="223.404,300.479 387.828,433.79 455.01,366.608 319.712,231.31  "/>
	<polygon style="fill:#FFB751;" points="269.642,181.24 319.712,231.31 254.517,300.479 387.828,433.79 366.615,455.003    181.247,269.635  "/>
	<path style="fill:#B26156;" d="M450.591,134.426l-119.734,50.226l-34.931-17.791l158.958-68.137   C455.441,110.667,454.006,122.752,450.591,134.426z"/>
	<path style="fill:#CC8073;" d="M454.883,98.724l-144.815,82.279l-30.674-5.388l-9.03-51.47L320.943,4.311   c36.161-10.451,76.113-1.923,103.888,25.866C443.725,49.071,453.716,73.601,454.883,98.724z"/>
	<polygon style="fill:#7BFFCD;" points="330.856,184.652 246.011,264.619 186.543,252.4 309.643,163.439  "/>
	<polygon style="fill:#CAFFEB;" points="309.643,163.439 207.756,259.471 196.987,258.021 190.397,208.991 270.363,124.145  "/>
	<path style="fill:#FF6288;" d="M224.797,243.405l-19.656,7.273L9.116,445.892c11.886,11.886,31.622,12.191,43.862,0.672   l193.033-181.946L224.797,243.405z"/>
	<path style="fill:#FF849B;" d="M190.397,208.991L8.451,402.024c-11.526,12.247-11.222,31.983,0.665,43.869   c2.821,2.821,14.913-4.518,26.877-16.313l188.804-186.174L190.397,208.991z"/>
</g>















</svg>
