<svg xmlns="http://www.w3.org/2000/svg" version="1.1" xmlns:xlink="http://www.w3.org/1999/xlink" width="512" height="512" x="0" y="0" viewBox="0 0 36 36" style="enable-background:new 0 0 512 512" xml:space="preserve" class=""><g><path xmlns="http://www.w3.org/2000/svg" d="m18 34a16 16 0 1 1 16-16 16 16 0 0 1 -16 16zm0-29.87a13.87 13.87 0 1 0 13.87 13.87 13.88 13.88 0 0 0 -13.87-13.87z" fill="#000000" data-original="#000000" class=""></path><path xmlns="http://www.w3.org/2000/svg" d="m13.83 24.31a2.13 2.13 0 0 1 -2-2.9l2.17-5.59a3.21 3.21 0 0 1 1.82-1.82l5.59-2.15a2.13 2.13 0 0 1 2.76 2.76l-2.17 5.57a3.21 3.21 0 0 1 -1.82 1.82l-5.59 2.15a2.12 2.12 0 0 1 -.76.16zm8.35-10.49-5.59 2.18a1.06 1.06 0 0 0 -.61.61l-2.15 5.59 5.58-2.2a1.06 1.06 0 0 0 .61-.61z" fill="#000000" data-original="#000000" class=""></path></g></svg>