<?xml version="1.0" encoding="iso-8859-1"?>
<!-- Generator: Adobe Illustrator 19.0.0, SVG Export Plug-In . SVG Version: 6.00 Build 0)  -->
<svg version="1.1" id="Layer_1" xmlns="http://www.w3.org/2000/svg" xmlns:xlink="http://www.w3.org/1999/xlink" x="0px" y="0px"
	 viewBox="0 0 512 512" style="enable-background:new 0 0 512 512;" xml:space="preserve">
<path style="fill:#FFA6BB;" d="M469.763,468.403c0,24.078-95.71,43.597-213.773,43.597S42.219,492.482,42.219,468.403
	c0,0,22.766-146.135,105.584-228.953h216.377C446.997,322.269,469.763,468.403,469.763,468.403z"/>
<g>
	<path style="fill:#FCCFEF;" d="M385.867,264.172c-6.725-8.679-13.942-16.978-21.687-24.721H147.802
		c-7.744,7.744-14.962,16.042-21.687,24.721c36.038,27.615,81.069,44.054,129.875,44.054
		C304.798,308.226,349.828,291.787,385.867,264.172z"/>
	<path style="fill:#FCCFEF;" d="M100.392,30.724L100.392,30.724c-27.59-10.973-58.849,2.499-69.822,30.088L9.646,113.428
		l99.91,39.733l20.924-52.615C141.452,72.956,127.981,41.696,100.392,30.724z"/>
</g>
<rect x="5.846" y="108.989" transform="matrix(-0.9292 -0.3695 0.3695 -0.9292 65.7416 279.1693)" style="fill:#BA82AA;" width="107.519" height="48.599"/>
<path style="fill:#FCCFEF;" d="M411.592,30.724L411.592,30.724c27.59-10.972,58.849,2.5,69.821,30.088l20.924,52.615l-99.91,39.733
	l-20.924-52.615C370.531,72.956,384.002,41.696,411.592,30.724z"/>
<rect x="398.634" y="108.989" transform="matrix(0.9292 -0.3695 0.3695 0.9292 -17.2339 176.5977)" style="fill:#BA82AA;" width="107.519" height="48.599"/>
<path style="fill:#FFA6BB;" d="M354.765,0h-13.954c-16.694,22.631-48.421,37.915-84.82,37.915S187.865,22.631,171.172,0h-13.954
	c-45.434,0-82.266,36.832-82.266,82.266v12.016c0,99.985,81.054,181.04,181.04,181.04l0,0c99.985,0,181.04-81.055,181.04-181.04
	V82.266C437.032,36.832,400.2,0,354.765,0z"/>
<g>
	<path style="fill:#FCCFEF;" d="M213.582,73.852L213.582,73.852c21.224,0,38.806-15.59,41.92-35.943
		C219.308,37.772,187.79,22.529,171.172,0v31.442C171.172,54.865,190.159,73.852,213.582,73.852z"/>
	<path style="fill:#FCCFEF;" d="M298.402,73.852L298.402,73.852c23.423,0,42.41-18.987,42.41-42.41V0
		c-16.618,22.529-48.137,37.772-84.33,37.909C259.596,58.262,277.178,73.852,298.402,73.852z"/>
</g>
<g>
	<circle style="fill:#BA82AA;" cx="255.992" cy="106.075" r="13.25"/>
	<circle style="fill:#BA82AA;" cx="255.992" cy="159.15" r="13.25"/>
	<circle style="fill:#BA82AA;" cx="255.992" cy="212.226" r="13.25"/>
</g>
<g style="opacity:0.1;">
	<path d="M86.093,468.403c0,0,22.766-146.135,105.584-228.953c-44.22-33.008-72.852-85.745-72.852-145.169V82.266
		c0-36.184,23.372-66.89,55.835-77.901c-1.225-1.423-2.391-2.877-3.489-4.364h-13.954c-45.434,0-82.266,36.832-82.266,82.266v12.016
		c0,59.424,28.632,112.16,72.852,145.169C64.985,322.269,42.219,468.403,42.219,468.403c0,24.078,95.71,43.597,213.773,43.597
		c7.406,0,14.724-0.077,21.937-0.227C170.17,509.533,86.093,490.972,86.093,468.403z"/>
</g>
<g>
</g>
<g>
</g>
<g>
</g>
<g>
</g>
<g>
</g>
<g>
</g>
<g>
</g>
<g>
</g>
<g>
</g>
<g>
</g>
<g>
</g>
<g>
</g>
<g>
</g>
<g>
</g>
<g>
</g>
</svg>
