<?xml version="1.0" ?><!DOCTYPE svg  PUBLIC '-//W3C//DTD SVG 1.1//EN'  'http://www.w3.org/Graphics/SVG/1.1/DTD/svg11.dtd'><svg width="129px" height="129px" viewBox="0 0 129 129" style="fill-rule:evenodd;clip-rule:evenodd;stroke-linejoin:round;stroke-miterlimit:2;" version="1.1" xml:space="preserve" xmlns="http://www.w3.org/2000/svg" xmlns:serif="http://www.serif.com/" xmlns:xlink="http://www.w3.org/1999/xlink"><g transform="matrix(1,0,0,1,-630,-508)"><g id="eyeglasses" transform="matrix(1,0,0,1,630.835,508.75)"><rect height="128" style="fill:none;" width="128" x="0" y="0"/><g><g transform="matrix(0.947519,0,0,0.947254,-10486.8,-1978.34)"><path d="M11075.3,2161.3L11075.3,2115.11C11075.3,2110.63 11077.1,2106.34 11080.2,2103.17C11084.4,2099.05 11089.2,2094.17 11089.2,2094.17C11090.1,2093.34 11090.1,2092 11089.2,2091.18C11088.4,2090.36 11087.1,2090.36 11086.3,2091.18C11086.3,2091.18 11081.4,2096.07 11077.3,2100.18C11073.3,2104.14 11071.1,2109.51 11071.1,2115.11L11071.1,2161.3C11071.1,2162.46 11072,2163.41 11073.2,2163.41C11074.3,2163.41 11075.3,2162.46 11075.3,2161.3Z" style="fill:rgb(51,51,51);"/></g><g transform="matrix(-0.947519,0,0,0.947254,10614.9,-1978.34)"><path d="M11071.1,2161.3C11071.1,2161.3 11071.1,2130.11 11071.1,2115.11C11071.1,2109.51 11073.3,2104.14 11077.3,2100.18C11081.4,2096.07 11086.3,2091.18 11086.3,2091.18C11087.1,2090.36 11088.4,2090.36 11089.2,2091.18C11090.1,2092 11090.1,2093.34 11089.2,2094.17C11089.2,2094.17 11084.4,2099.05 11080.2,2103.17C11077.1,2106.34 11075.3,2110.63 11075.3,2115.11L11075.3,2161.3C11075.3,2162.46 11074.3,2163.41 11073.2,2163.41C11072,2163.41 11071.1,2162.46 11071.1,2161.3Z" style="fill:rgb(51,51,51);"/></g><g transform="matrix(0.88973,0,0,0.947254,-9845.28,-1978.34)"><path d="M11122.3,2212.98C11120.5,2216.91 11116.3,2219.45 11111.7,2219.45C11102.8,2219.46 11089.3,2219.46 11080.9,2219.46C11078.8,2219.46 11076.9,2218.7 11075.4,2217.34C11074,2215.99 11073.2,2214.15 11073.2,2212.23C11073.2,2199.06 11073.2,2172.5 11073.2,2172.5L11201.6,2172.5L11201.6,2208.55C11201.6,2211.44 11200.4,2214.22 11198.2,2216.26C11196,2218.31 11193.1,2219.46 11190,2219.46C11179.8,2219.46 11165.5,2219.46 11158.4,2219.46C11156.1,2219.46 11154,2217.95 11153.4,2215.8C11151.6,2208.7 11145.1,2203.48 11137.4,2203.48C11130.8,2203.48 11125,2207.36 11122.3,2212.98Z" style="fill:rgb(102,102,102);"/></g><g><g transform="matrix(1,0,0,1,-6356.2,-3130.42)"><path d="M6386.1,3254.46L6369.09,3254.47L6387.63,3209.99L6404.64,3209.99L6386.1,3254.46Z" style="fill:rgb(140,140,140);"/></g><g transform="matrix(1,0,0,1,-6293.56,-3130.42)"><path d="M6386.1,3254.46L6376.62,3254.47L6395.16,3209.99L6404.64,3209.99L6386.1,3254.46Z" style="fill:rgb(140,140,140);"/></g><g transform="matrix(1,0,0,1,-6347.22,-3130.42)"><path d="M6386.1,3254.46L6381.85,3254.47L6400.4,3209.99L6404.64,3209.99L6386.1,3254.46Z" style="fill:rgb(140,140,140);"/></g><g transform="matrix(1,0,0,1,-6284.58,-3130.42)"><path d="M6386.1,3254.46L6381.85,3254.47L6400.4,3209.99L6404.64,3209.99L6386.1,3254.46Z" style="fill:rgb(140,140,140);"/></g></g><g transform="matrix(1,0,0,1,-6345.33,-3130.42)"><rect height="9.525" style="fill:rgb(76,76,76);" width="114.278" x="6352.19" y="3209.99"/></g><g transform="matrix(0.947519,0,0,0.947254,-10940.2,-1955.01)"><path d="M11677.9,2132.55L11677.9,2133.03C11677.9,2134.29 11677.4,2135.49 11676.5,2136.37C11675.6,2137.25 11674.4,2137.75 11673.2,2137.75C11653,2137.75 11574.3,2137.75 11554.2,2137.75C11552.9,2137.75 11551.7,2137.25 11550.8,2136.37C11550,2135.49 11549.5,2134.29 11549.5,2133.03L11549.5,2143.16C11549.5,2144.41 11550,2145.61 11550.8,2146.49C11551.7,2147.38 11552.9,2147.87 11554.2,2147.87C11574.3,2147.87 11653,2147.87 11673.2,2147.87C11674.4,2147.87 11675.6,2147.38 11676.5,2146.49C11677.4,2145.61 11677.9,2144.41 11677.9,2143.16L11677.9,2132.55Z" style="fill:rgb(244,187,49);"/></g><g transform="matrix(1,0,0,1,-6345.33,-3130.42)"><path d="M6470.18,3201.07L6470.18,3195.94C6470.18,3197.12 6469.7,3198.26 6468.87,3199.1C6468.03,3199.93 6466.89,3200.4 6465.71,3200.4C6446.62,3200.4 6372.03,3200.4 6352.94,3200.4C6351.76,3200.4 6350.62,3199.93 6349.78,3199.1C6348.95,3198.26 6348.48,3197.12 6348.48,3195.94L6348.48,3205.52C6348.48,3205.52 6348.48,3201.07 6348.48,3201.07C6348.48,3202.26 6348.95,3203.39 6349.78,3204.23C6350.62,3205.07 6351.76,3205.54 6352.94,3205.54C6372.03,3205.54 6446.62,3205.54 6465.71,3205.54C6466.89,3205.54 6468.03,3205.07 6468.87,3204.23C6469.7,3203.39 6470.18,3202.26 6470.18,3201.07Z" style="fill:rgb(247,204,101);"/></g></g></g></g></svg>