<?xml version="1.0" encoding="iso-8859-1"?>
<!-- Generator: Adobe Illustrator 19.0.0, SVG Export Plug-In . SVG Version: 6.00 Build 0)  -->
<svg version="1.1" id="Layer_1" xmlns="http://www.w3.org/2000/svg" xmlns:xlink="http://www.w3.org/1999/xlink" x="0px" y="0px"
	 viewBox="0 0 511.982 511.982" style="enable-background:new 0 0 511.982 511.982;" xml:space="preserve">
<path style="fill:#E6E9ED;" d="M469.312,21.327C469.312,21.327,474,0,255.991,0C37.983,0,42.67,21.327,42.67,21.327v85.333
	l39.374,149.323L42.67,405.313v85.326c0,0-4.703,21.343,213.321,21.343c218.009,0,213.321-21.343,213.321-21.343v-85.326
	l-39.374-149.33l39.374-149.323L469.312,21.327L469.312,21.327z"/>
<path style="fill:#CCD1D9;" d="M255.991,0C37.983,0,42.67,21.327,42.67,21.327v85.333l39.374,149.323h347.895l39.374-149.323V21.327
	C469.312,21.327,474,0,255.991,0z"/>
<path style="opacity:0.1;enable-background:new    ;" d="M469.312,405.313l-39.374-149.33l39.374-149.323V21.327
	C469.312,21.327,474,0,255.991,0C37.983,0,42.67,21.327,42.67,21.327v85.333l39.374,149.323L42.67,405.313v85.326
	c0,0-4.703,21.343,213.321,21.343c218.009,0,213.321-21.343,213.321-21.343L469.312,405.313L469.312,405.313z M447.984,478.577
	c-5.968,1.625-16.562,3.812-34.623,5.875c-36.296,4.109-89.247,6.188-157.37,6.188s-121.074-2.078-157.37-6.188
	c-18.062-2.062-28.655-4.25-34.624-5.875v-70.498l38.67-146.65l1.438-5.445l-1.438-5.438l-38.67-146.651v-70.49
	c5.968-1.625,16.562-3.828,34.624-5.875c36.296-4.117,89.247-6.203,157.37-6.203s121.074,2.086,157.37,6.203
	c18.062,2.047,28.655,4.25,34.623,5.875v70.489l-38.67,146.651l-1.438,5.438l1.438,5.445l38.67,146.65L447.984,478.577
	L447.984,478.577z"/>
<path style="fill:#ED5564;" d="M255.991,0C37.983,0,42.67,21.327,42.67,21.327v85.333h426.642V21.327
	C469.312,21.327,474,0,255.991,0z"/>
<path style="opacity:0.1;fill:#FFFFFF;enable-background:new    ;" d="M42.67,42.428c0.266-2.32,8.75-21.101,213.321-21.101
	s213.056,18.78,213.321,21.101V21.327C469.312,21.327,474,0,255.991,0C37.983,0,42.67,21.327,42.67,21.327L42.67,42.428
	L42.67,42.428z"/>
<polygon style="fill:#3BAFDA;" points="270.506,245.319 270.506,252.014 298.662,223.648 287.99,191.993 223.992,191.993 
	213.321,223.648 234.82,245.319 "/>
<path style="fill:#F6BB42;" d="M362.66,341.301c-0.016-58.905-47.765-106.645-106.669-106.645s-106.668,47.756-106.668,106.66l0,0
	c0,2.734,1.047,5.453,3.125,7.546c4.171,4.156,10.921,4.156,15.093,0c2.078-2.093,3.125-4.812,3.125-7.546l0,0
	c0-22.796,8.875-44.218,24.984-60.326c16.124-16.124,37.545-25.007,60.341-25.007s44.218,8.883,60.342,25.007
	c16.108,16.108,24.983,37.53,24.983,60.326l0,0c0,2.734,1.047,5.453,3.125,7.546c4.172,4.156,10.922,4.156,15.094,0
	C361.613,346.769,362.66,344.051,362.66,341.301z"/>
<path style="fill:#ED5564;" d="M42.67,405.313v85.326v0.25c0.266,2.312,8.75,21.093,213.321,21.093
	c218.009,0,213.321-21.343,213.321-21.343v-85.326H42.67z"/>
<g>
</g>
<g>
</g>
<g>
</g>
<g>
</g>
<g>
</g>
<g>
</g>
<g>
</g>
<g>
</g>
<g>
</g>
<g>
</g>
<g>
</g>
<g>
</g>
<g>
</g>
<g>
</g>
<g>
</g>
</svg>
