<svg xmlns="http://www.w3.org/2000/svg" version="1.1" xmlns:xlink="http://www.w3.org/1999/xlink" width="512" height="512" x="0" y="0" viewBox="0 0 512 512" style="enable-background:new 0 0 512 512" xml:space="preserve" class=""><g><path xmlns="http://www.w3.org/2000/svg" d="m141.255 228h-106.51c-19.159 0-34.745-15.586-34.745-34.745v-106.51c0-19.159 15.586-34.745 34.745-34.745h106.51c19.159 0 34.745 15.586 34.745 34.745v106.51c0 19.159-15.586 34.745-34.745 34.745zm-106.51-144c-1.514 0-2.745 1.231-2.745 2.745v106.51c0 1.514 1.231 2.745 2.745 2.745h106.51c1.514 0 2.745-1.231 2.745-2.745v-106.51c0-1.514-1.231-2.745-2.745-2.745z" fill="#000000" data-original="#000000"></path><path xmlns="http://www.w3.org/2000/svg" d="m141.255 460h-106.51c-19.159 0-34.745-15.586-34.745-34.745v-106.51c0-19.159 15.586-34.745 34.745-34.745h106.51c19.159 0 34.745 15.586 34.745 34.745v106.51c0 19.159-15.586 34.745-34.745 34.745zm-106.51-144c-1.514 0-2.745 1.231-2.745 2.745v106.51c0 1.514 1.231 2.745 2.745 2.745h106.51c1.514 0 2.745-1.231 2.745-2.745v-106.51c0-1.514-1.231-2.745-2.745-2.745z" fill="#000000" data-original="#000000"></path><path xmlns="http://www.w3.org/2000/svg" d="m496 132h-256c-8.836 0-16-7.164-16-16s7.164-16 16-16h256c8.836 0 16 7.164 16 16s-7.164 16-16 16z" fill="#000000" data-original="#000000"></path><path xmlns="http://www.w3.org/2000/svg" d="m408 192h-168c-8.836 0-16-7.164-16-16s7.164-16 16-16h168c8.836 0 16 7.164 16 16s-7.164 16-16 16z" fill="#000000" data-original="#000000"></path><path xmlns="http://www.w3.org/2000/svg" d="m496 360h-256c-8.836 0-16-7.164-16-16s7.164-16 16-16h256c8.836 0 16 7.164 16 16s-7.164 16-16 16z" fill="#000000" data-original="#000000"></path><path xmlns="http://www.w3.org/2000/svg" d="m408 424h-168c-8.836 0-16-7.164-16-16s7.164-16 16-16h168c8.836 0 16 7.164 16 16s-7.164 16-16 16z" fill="#000000" data-original="#000000"></path></g></svg>