<svg xmlns="http://www.w3.org/2000/svg" version="1.1" xmlns:xlink="http://www.w3.org/1999/xlink" width="512" height="512" x="0" y="0" viewBox="0 0 511.999 511.999" style="enable-background:new 0 0 512 512" xml:space="preserve" class=""><g>
<g xmlns="http://www.w3.org/2000/svg">
	<g>
		<path d="M409.124,63.426C368.224,22.525,313.843,0,256.001,0S143.777,22.525,102.877,63.426    c-40.901,40.902-63.426,95.282-63.426,153.123c0,117.012,110.638,214.337,170.077,266.623c8.26,7.266,15.393,13.541,21.076,18.849    c7.12,6.651,16.259,9.977,25.396,9.977c9.139,0,18.276-3.326,25.397-9.977c5.683-5.309,12.816-11.583,21.076-18.849    c59.439-52.287,170.077-149.611,170.077-266.623C472.549,158.708,450.025,104.328,409.124,63.426z M282.663,460.654    c-8.441,7.425-15.73,13.838-21.74,19.451c-2.761,2.577-7.085,2.578-9.847,0c-6.009-5.615-13.299-12.027-21.74-19.452    c-55.88-49.155-159.895-140.654-159.895-244.103c0-102.868,83.689-186.557,186.558-186.557    c102.868,0,186.557,83.689,186.557,186.557C442.557,319.999,338.543,411.498,282.663,460.654z" fill="#000000" data-original="#000000"></path>
	</g>
</g>
<g xmlns="http://www.w3.org/2000/svg">
	<g>
		<path d="M256.001,112.938c-52.621,0-95.431,42.809-95.431,95.43s42.81,95.43,95.431,95.43s95.43-42.809,95.43-95.43    S308.622,112.938,256.001,112.938z M256.001,273.805c-36.083,0-65.439-29.356-65.439-65.438s29.356-65.438,65.439-65.438    s65.438,29.356,65.438,65.438S292.084,273.805,256.001,273.805z" fill="#000000" data-original="#000000"></path>
	</g>
</g>
<g xmlns="http://www.w3.org/2000/svg">
</g>
<g xmlns="http://www.w3.org/2000/svg">
</g>
<g xmlns="http://www.w3.org/2000/svg">
</g>
<g xmlns="http://www.w3.org/2000/svg">
</g>
<g xmlns="http://www.w3.org/2000/svg">
</g>
<g xmlns="http://www.w3.org/2000/svg">
</g>
<g xmlns="http://www.w3.org/2000/svg">
</g>
<g xmlns="http://www.w3.org/2000/svg">
</g>
<g xmlns="http://www.w3.org/2000/svg">
</g>
<g xmlns="http://www.w3.org/2000/svg">
</g>
<g xmlns="http://www.w3.org/2000/svg">
</g>
<g xmlns="http://www.w3.org/2000/svg">
</g>
<g xmlns="http://www.w3.org/2000/svg">
</g>
<g xmlns="http://www.w3.org/2000/svg">
</g>
<g xmlns="http://www.w3.org/2000/svg">
</g>
</g></svg>