<?xml version="1.0" encoding="iso-8859-1"?>
<!-- Generator: Adobe Illustrator 19.0.0, SVG Export Plug-In . SVG Version: 6.00 Build 0)  -->
<svg version="1.1" id="Layer_1" xmlns="http://www.w3.org/2000/svg" xmlns:xlink="http://www.w3.org/1999/xlink" x="0px" y="0px"
	 viewBox="0 0 512 512" style="enable-background:new 0 0 512 512;" xml:space="preserve">
<path style="fill:#E6BD67;" d="M177.459,144.225c-10.621,0-19.232,8.61-19.232,19.232s8.61,19.232,19.232,19.232h78.725v-38.463
	H177.459z"/>
<path style="fill:#9E6F91;" d="M309.61,144.225h-27.052h-26.882v38.463h26.882h27.052c50.019,0,92.197,34.189,104.407,80.424h39.419
	C440.51,195.493,380.94,144.225,309.61,144.225z"/>
<rect x="130.204" y="105.774" style="fill:#FFD782;" width="72.526" height="108.818"/>
<rect x="130.204" y="105.774" style="opacity:0.1;enable-background:new    ;" width="25.276" height="108.818"/>
<path style="fill:#9E6F91;" d="M202.732,205.352c36.906,26.53,75.131,54.117,102.141,91.28
	c28.03,38.565,44.406,101.192,3.187,137.076c-36.853,32.083-95.996,28.798-141.591,28.798s-104.736,3.286-141.591-28.798
	c-41.22-35.884-24.843-98.512,3.187-137.076c27.01-37.162,65.235-64.75,102.141-91.28H202.732z"/>
<g style="opacity:0.1;">
	<path d="M192.844,462.506c-4.286,0-8.692,0.029-13.187,0.055c7.03,0.041,14.283,0.07,21.64-0.026
		C198.435,462.519,195.613,462.506,192.844,462.506z"/>
	<path d="M51.253,433.709c-41.22-35.885-24.843-98.512,3.187-137.077c27.01-37.162,65.235-64.749,102.141-91.28h-26.375
		c-36.906,26.53-75.131,54.117-102.141,91.28c-28.03,38.565-44.406,101.192-3.187,137.077
		c34.615,30.134,88.892,29.066,133.138,28.825C120.034,462.032,79.226,458.059,51.253,433.709z"/>
</g>
<path style="fill:#FFA6BB;" d="M288.686,370.461c-1.512-15.439-8.754-33.377-19.371-47.984
	c-8.771-12.068-19.315-23.204-30.883-33.727H94.507c-11.568,10.522-22.112,21.66-30.883,33.727
	c-10.618,14.608-17.859,32.546-19.371,47.984c-1.97,20.116,6.355,27.364,9.489,30.094c19.174,16.691,55.725,18.09,88.48,18.089
	c4.167,0,8.283-0.023,12.319-0.047c4.06-0.024,8.043-0.047,11.929-0.047s7.868,0.023,11.926,0.047
	c4.038,0.023,8.152,0.047,12.323,0.047c32.755,0,69.306-1.397,88.48-18.09C282.33,397.825,290.657,390.576,288.686,370.461z"/>
<g style="opacity:0.1;">
	<path d="M199.438,418.548c-3.886,0-7.87,0.023-11.929,0.047c-1.506,0.009-3.031,0.017-4.556,0.024
		c2.566,0.013,5.15,0.023,7.765,0.023c3.953,0,7.961-0.022,11.987-0.087C201.613,418.553,200.513,418.548,199.438,418.548z"/>
	<path d="M86.711,400.554c-3.134-2.729-11.461-9.977-9.489-30.094c1.512-15.438,8.754-33.376,19.371-47.984
		c8.771-12.066,19.316-23.204,30.883-33.727H94.507c-11.568,10.522-22.112,21.66-30.883,33.727
		c-10.618,14.608-17.859,32.546-19.371,47.984c-1.97,20.116,6.355,27.364,9.489,30.094c19.174,16.691,55.725,18.09,88.48,18.089
		c4.167,0,8.283-0.023,12.319-0.047c2.93-0.018,5.804-0.031,8.647-0.04C133.855,418.082,103.567,415.228,86.711,400.554z"/>
</g>
<path style="fill:#E6BD67;" d="M436.816,309.894c10.621,0,19.232-8.61,19.232-19.232c0-9.416-0.904-18.624-2.61-27.55h-39.419
	c2.323,8.798,3.567,18.032,3.567,27.55C417.584,301.283,426.195,309.894,436.816,309.894z"/>
<path style="fill:#9E6F91;" d="M447.737,324.908h-21.843c-35.492,0-64.263,28.772-64.263,64.263l0,0
	c0,35.492,28.772,64.263,64.263,64.263h21.843c35.492,0,64.263-28.772,64.263-64.263l0,0
	C512,353.68,483.229,324.908,447.737,324.908z"/>
<path style="opacity:0.1;enable-background:new    ;" d="M392.401,389.171c0-33.989,26.392-61.797,59.799-64.092
	c-1.477-0.101-2.962-0.171-4.464-0.171h-21.843c-35.492,0-64.263,28.772-64.263,64.263s28.772,64.263,64.263,64.263h21.843
	c1.502,0,2.987-0.07,4.464-0.171C418.794,450.968,392.401,423.161,392.401,389.171z"/>
<g>
	<path style="fill:#9E6F91;" d="M79.157,160.709H33.823c-4.552,0-8.242-3.69-8.242-8.242c0-4.552,3.69-8.242,8.242-8.242h45.334
		c4.552,0,8.242,3.69,8.242,8.242C87.399,157.019,83.708,160.709,79.157,160.709z"/>
	<path style="fill:#9E6F91;" d="M79.151,130.05c-1.791,0-3.595-0.581-5.108-1.778l-27.766-21.965
		c-3.57-2.824-4.175-8.007-1.351-11.577c2.824-3.57,8.008-4.175,11.577-1.351l27.766,21.964c3.57,2.824,4.175,8.007,1.351,11.577
		C83.994,128.977,81.584,130.05,79.151,130.05z"/>
	<path style="fill:#9E6F91;" d="M51.396,213.333c-2.433,0-4.843-1.073-6.47-3.129c-2.824-3.57-2.219-8.754,1.351-11.577
		l27.766-21.964c3.569-2.824,8.754-2.22,11.577,1.351c2.824,3.57,2.22,8.754-1.351,11.577l-27.766,21.964
		C54.991,212.752,53.186,213.333,51.396,213.333z"/>
</g>
<path style="fill:#FFA6BB;" d="M172.452,49.399h-11.965c-28.011,0-50.718,22.708-50.718,50.718l0,0
	c0,11.287,9.15,20.437,20.437,20.437h72.526c11.287,0,20.437-9.15,20.437-20.437l0,0C223.169,72.105,200.463,49.399,172.452,49.399z
	"/>
<path style="opacity:0.1;enable-background:new    ;" d="M132.847,100.117L132.847,100.117c0-26.132,19.766-47.641,45.161-50.409
	c-1.825-0.199-3.678-0.309-5.556-0.309h-11.965c-28.011,0-50.718,22.708-50.718,50.718l0,0c0,11.287,9.15,20.437,20.437,20.437
	h23.078C141.997,120.554,132.847,111.404,132.847,100.117z"/>
<path style="fill:#FFD782;" d="M485.376,331.873c0-20.56-21.742-37.228-48.56-37.228c-26.819,0-48.56,16.668-48.56,37.228
	l48.56,29.338L485.376,331.873z"/>
<g>
</g>
<g>
</g>
<g>
</g>
<g>
</g>
<g>
</g>
<g>
</g>
<g>
</g>
<g>
</g>
<g>
</g>
<g>
</g>
<g>
</g>
<g>
</g>
<g>
</g>
<g>
</g>
<g>
</g>
</svg>
