<svg xmlns="http://www.w3.org/2000/svg" version="1.1" xmlns:xlink="http://www.w3.org/1999/xlink" width="512" height="512" x="0" y="0" viewBox="0 0 32 32" style="enable-background:new 0 0 512 512" xml:space="preserve" class=""><g><path xmlns="http://www.w3.org/2000/svg" d="m31.06.94a3.21 3.21 0 0 0 -3.34-.75l-25.53 10.53a3.19 3.19 0 0 0 -.54 5.82l.11.05 10.07 4.17a1.14 1.14 0 0 0 1.17-.24l5.27-5.27a1.07 1.07 0 1 0 -1.51-1.51l-4.76 4.77-9.37-3.86a1 1 0 0 1 -.5-1 1.09 1.09 0 0 1 .79-.94l25.54-10.52a1.06 1.06 0 0 1 1.09.25 1 1 0 0 1 .28 1l-10.57 25.7a1 1 0 0 1 -.91.72 1 1 0 0 1 -1-.5l-2.58-6.23a1.07 1.07 0 0 0 -2 .82l2.61 6.3.05.11a3.14 3.14 0 0 0 2.81 1.64h.31a3.13 3.13 0 0 0 2.71-2.1l10.57-25.69a3.18 3.18 0 0 0 -.77-3.27z" fill="#ffffff" data-original="#000000" class=""></path></g></svg>