<?xml version="1.0" encoding="iso-8859-1"?>
<!-- Generator: Adobe Illustrator 19.0.0, SVG Export Plug-In . SVG Version: 6.00 Build 0)  -->
<svg version="1.1" id="Layer_1" xmlns="http://www.w3.org/2000/svg" xmlns:xlink="http://www.w3.org/1999/xlink" x="0px" y="0px"
	 viewBox="0 0 512 512" style="enable-background:new 0 0 512 512;" xml:space="preserve">
<path style="fill:#083B25;" d="M459.618,293.663l-70.408-10.69c-18.308-3.094-40.847-19.276-50.198-35.322l-94.579-162.13
	l-29.28,16.8l0.113,0.203v221.375l255.1,80.075h33.758v-58.548C504.123,320.67,484.093,297.376,459.618,293.663z"/>
<polygon style="fill:#FF6638;" points="135.033,336.457 135.033,426.479 0,426.479 0,358.963 "/>
<path style="fill:#0B4E31;" d="M454.555,327.039l-70.971-10.78c-28.053-4.737-59.066-26.433-73.739-51.594l-94.579-162.141
	l-0.113-0.203l-0.349,0.203c-39.216,21.515-53.541,70.667-32.025,109.883v0.416l-47.745,112.381
	c21.673,0,52.989,20.311,71.309,31.89l49.827,31.463c12.997,8.203,37.899,15.416,53.282,15.416h160.914v-58.548
	C470.365,337.357,462.533,328.243,454.555,327.039z"/>
<path style="fill:#10744A;" d="M291.885,233.866c0,0.011-11.196,47.813-11.196,47.813l-5.086,21.707
	c-3.049,11.995-15.664,21.819-28.042,21.819H135.033L71.455,347.71L7.877,325.204V222.771c0.191-5.705,1.508-25.645,8.788-42.029
	l13.447,8.417c21.054,13.019,58.537,23.665,83.293,23.665h69.373h96.582l0.18-0.101L291.885,233.866z"/>
<polygon style="fill:#FF6638;" points="512,392.721 512,426.479 478.242,426.479 455.736,409.6 478.242,392.721 504.123,392.721 "/>
<path style="fill:#FF883E;" d="M478.242,392.721v33.758H309.451c-21.673,0-52.989-9.07-71.309-20.638l-49.827-31.463
	c-12.997-8.215-37.899-15.416-53.282-15.416H0v-33.758h7.877h127.156c21.673,0,52.989,9.058,71.309,20.638l49.827,31.463
	c12.997,8.203,37.899,15.416,53.282,15.416h160.914H478.242z"/>
<g>
	<path style="fill:#FFAB58;" d="M331.72,212.823l17.014,29.167l-29.167,17.014c0-0.011-19.991-6.313-19.991-6.313l2.988-22.854
		L331.72,212.823z"/>
	<polygon style="fill:#FFAB58;" points="286.968,136.113 303.982,165.269 274.815,182.283 253.333,176.473 257.812,153.116 	"/>
</g>
<path style="fill:#FFCD71;" d="M319.567,258.993c0,0.011-38.878,22.686-38.878,22.686l-61.755-105.877l38.878-22.686l17.003,29.167
	l-9.711,5.671l27.738,47.554l9.722-5.671L319.567,258.993z"/>
<g>
	<circle style="fill:#0B4E31;" cx="84.396" cy="285.887" r="8.44"/>
	<circle style="fill:#0B4E31;" cx="50.637" cy="252.129" r="8.44"/>
</g>
<g>
</g>
<g>
</g>
<g>
</g>
<g>
</g>
<g>
</g>
<g>
</g>
<g>
</g>
<g>
</g>
<g>
</g>
<g>
</g>
<g>
</g>
<g>
</g>
<g>
</g>
<g>
</g>
<g>
</g>
</svg>
