<svg xmlns="http://www.w3.org/2000/svg" version="1.1" xmlns:xlink="http://www.w3.org/1999/xlink" width="512" height="512" x="0" y="0" viewBox="0 0 32 32" style="enable-background:new 0 0 512 512" xml:space="preserve" class=""><g><g xmlns="http://www.w3.org/2000/svg" id="Layer_1"><g fill="rgb(0,0,0)"><path d="m27.43 6.41c-3.24-2.74-8.16-2.49-11.43.43-3.27-2.92-8.19-3.17-11.43-.43-1.77 1.5-2.81 3.78-2.85 6.26-.05 2.64 1.03 5.17 2.95 6.91l7.71 7.72c1 1 2.31 1.5 3.62 1.5s2.62-.5 3.62-1.5l7.68-7.69c1.95-1.77 3.03-4.3 2.98-6.94-.04-2.48-1.08-4.76-2.85-6.26zm-1.51 11.76-7.72 7.72c-1.21 1.21-3.19 1.21-4.4 0l-7.75-7.75c-1.52-1.39-2.37-3.37-2.34-5.43.04-1.91.83-3.65 2.16-4.78 1.12-.95 2.55-1.41 4.02-1.41 1.95 0 3.96.82 5.36 2.4.38.42 1.12.42 1.5 0 2.46-2.76 6.76-3.21 9.38-.99 1.33 1.13 2.12 2.87 2.16 4.78.03 2.06-.82 4.04-2.37 5.46z" fill="#000000" data-original="#000000" class=""></path></g></g></g></svg>